<?xml version="1.0" encoding="UTF-8"?>
<svg id="Layer_1" data-name="Layer 1" xmlns="http://www.w3.org/2000/svg" viewBox="0 0 1316.82 255.21">
  <defs>
    <style>
      .cls-1 {
        fill: #29abe2;
        stroke-width: 0px;
      }
    </style>
  </defs>
  <g>
    <path class="cls-1" d="M202.58,213.88c-17.97,11.44-39.31,18.07-62.19,18.07-64.05,0-115.97-51.92-115.97-115.98,0-12.34,1.93-24.23,5.5-35.39,8.44,9.09,18.13,18.72,28.84,28.64-.18,2.23-.28,4.48-.28,6.75,0,45.24,36.67,81.91,81.91,81.91,9.53,0,18.67-1.63,27.17-4.62,12.34,7.87,24.12,14.79,35.03,20.61h-.01Z"/>
    <path class="cls-1" d="M246.64,162.53c6.25-14.25,9.72-30,9.72-46.56C256.36,51.92,204.44,0,140.39,0c-26.98,0-51.82,9.22-71.52,24.67C34.36,6.48,8.83-.45,1.86,8.54c-6.97,8.99,6.09,31.99,32.29,60.87,7.79,8.59,16.74,17.69,26.66,27.1,16.55,15.69,35.81,32.23,56.96,48.63,21.15,16.4,41.96,30.94,61.28,43.06,11.58,7.27,22.62,13.67,32.87,19.07,34.51,18.19,60.04,25.12,67.01,16.13,6.97-8.99-6.09-31.99-32.29-60.87h0ZM211.7,156.67c-1.92,3.62-4.18,7.06-6.98,9.64-1.91,1.76-3.8,1.83-6.37,1.6-5.22-.46-10.39-2.62-15.14-4.7-16.12-7.06-31.07-17.04-45.21-27.42-2.76-2.03-5.49-4.09-8.2-6.19-14.72-11.42-29.01-23.79-41.27-37.86-4.42-5.06-16.17-16.88-13.51-24.79.87-2.59,3.68-4.96,5.47-6.88,3.25-3.48,6.81-6.68,10.62-9.54,27.82-20.92,67.07-21.48,95.78-1.92,4.03,2.75,7.82,5.87,11.27,9.31,23.17,23.11,30.49,59.73,17.63,89.88-1.2,2.81-2.53,5.89-4.1,8.86h0Z"/>
  </g>
  <g>
    <path class="cls-1" d="M406.38,56.17c0,4.77-.79,9.19-2.38,13.25-1.59,4.07-3.83,7.58-6.71,10.55s-6.35,5.29-10.4,6.95-8.54,2.5-13.46,2.5-9.41-.83-13.48-2.5-7.54-3.98-10.44-6.95c-2.9-2.97-5.14-6.49-6.73-10.55-1.59-4.06-2.38-8.48-2.38-13.25s.79-9.19,2.38-13.25c1.59-4.06,3.83-7.58,6.73-10.55,2.9-2.97,6.37-5.29,10.44-6.95,4.06-1.67,8.56-2.5,13.48-2.5s9.41.84,13.46,2.52,7.52,4,10.4,6.95c2.88,2.96,5.11,6.47,6.71,10.53,1.59,4.07,2.38,8.48,2.38,13.25ZM393.96,56.17c0-3.57-.47-6.77-1.42-9.61s-2.3-5.24-4.07-7.22-3.92-3.49-6.46-4.54c-2.54-1.05-5.39-1.57-8.57-1.57s-6.05.52-8.59,1.57c-2.55,1.05-4.72,2.57-6.5,4.54-1.79,1.98-3.16,4.39-4.12,7.22s-1.44,6.04-1.44,9.61.48,6.77,1.44,9.61c.96,2.84,2.33,5.24,4.12,7.2,1.78,1.97,3.95,3.47,6.5,4.52,2.55,1.05,5.41,1.58,8.59,1.58s6.04-.52,8.57-1.58c2.53-1.05,4.69-2.56,6.46-4.52s3.13-4.36,4.07-7.2c.94-2.83,1.42-6.04,1.42-9.61Z"/>
    <path class="cls-1" d="M415.29,88.71v-46.17h6.52c1.14,0,1.94.21,2.39.63s.75,1.14.9,2.16l.67,5.58c1.65-2.85,3.58-5.1,5.81-6.75,2.22-1.65,4.71-2.47,7.47-2.47,2.28,0,4.17.52,5.67,1.57l-1.44,8.33c-.09.54-.29.92-.58,1.15-.3.23-.71.34-1.22.34-.45,0-1.06-.1-1.84-.32-.78-.21-1.82-.31-3.1-.31-2.31,0-4.29.64-5.94,1.91-1.65,1.28-3.05,3.14-4.19,5.6v28.75h-11.12,0Z"/>
    <path class="cls-1" d="M452.19,88.71V21.84h11.11v26.37c1.83-1.95,3.9-3.5,6.21-4.66,2.31-1.15,5.01-1.73,8.1-1.73,2.52,0,4.82.52,6.91,1.55,2.08,1.03,3.88,2.54,5.4,4.52,1.51,1.98,2.68,4.42,3.51,7.33.82,2.91,1.24,6.25,1.24,10.04,0,3.45-.47,6.64-1.4,9.58s-2.26,5.49-3.98,7.65c-1.73,2.16-3.81,3.85-6.26,5.06s-5.18,1.82-8.21,1.82c-1.41,0-2.7-.14-3.87-.43s-2.23-.68-3.19-1.19c-.96-.51-1.85-1.13-2.68-1.87-.83-.73-1.61-1.55-2.36-2.45l-.5,3.1c-.18.78-.49,1.34-.92,1.67-.44.33-1.03.5-1.78.5h-7.33ZM473.79,50.46c-2.31,0-4.28.49-5.92,1.46s-3.16,2.35-4.57,4.12v20.7c1.26,1.56,2.63,2.65,4.12,3.26,1.48.62,3.1.92,4.84.92s3.19-.31,4.54-.94,2.5-1.59,3.44-2.88c.95-1.29,1.67-2.92,2.18-4.88s.77-4.28.77-6.95-.22-4.99-.65-6.86c-.44-1.87-1.06-3.4-1.87-4.57s-1.79-2.02-2.95-2.56-2.47-.81-3.94-.81h0Z"/>
    <path class="cls-1" d="M516.85,29.08c0,.96-.2,1.86-.58,2.7-.39.84-.91,1.58-1.55,2.21-.65.63-1.4,1.13-2.27,1.51s-1.8.56-2.79.56-1.87-.19-2.72-.56-1.6-.88-2.23-1.51-1.13-1.37-1.51-2.21c-.38-.84-.56-1.74-.56-2.7s.19-1.92.56-2.79c.37-.87.88-1.62,1.51-2.25s1.37-1.13,2.23-1.51,1.76-.56,2.72-.56,1.92.19,2.79.56,1.63.88,2.27,1.51c.64.63,1.16,1.38,1.55,2.25s.58,1.8.58,2.79ZM515.19,42.54v46.17h-11.11v-46.17h11.11Z"/>
    <path class="cls-1" d="M542.91,89.43c-3.99,0-7.06-1.13-9.23-3.4-2.16-2.26-3.24-5.39-3.24-9.38v-25.79h-4.68c-.6,0-1.12-.19-1.55-.58-.44-.39-.65-.97-.65-1.75v-4.41l7.43-1.21,2.34-12.6c.12-.6.4-1.06.83-1.39.43-.33.98-.5,1.64-.5h5.76v14.54h12.15v7.92h-12.15v25.02c0,1.44.36,2.57,1.08,3.38s1.68,1.22,2.88,1.22c.69,0,1.27-.08,1.73-.25.46-.16.87-.34,1.22-.52.34-.18.65-.35.92-.52.27-.16.54-.25.81-.25.33,0,.6.08.81.25.21.17.43.41.67.74l3.33,5.4c-1.62,1.35-3.48,2.37-5.58,3.06-2.1.69-4.27,1.04-6.52,1.04v-.02Z"/>
    <path class="cls-1" d="M621.61,23.64v9.63h-28.84v18.04h22.73v9.31h-22.73v18.41h28.84v9.67h-41.04V23.64h41.04,0Z"/>
    <path class="cls-1" d="M631.47,88.71v-46.17h6.79c1.44,0,2.39.67,2.83,2.03l.77,3.64c.93-.96,1.91-1.83,2.95-2.61,1.03-.78,2.13-1.46,3.28-2.03s2.39-1,3.71-1.3c1.32-.3,2.76-.45,4.32-.45,2.52,0,4.75.43,6.71,1.28,1.95.86,3.58,2.06,4.88,3.6s2.29,3.39,2.97,5.53c.67,2.15,1.01,4.51,1.01,7.09v29.38h-11.11v-29.38c0-2.82-.65-5-1.96-6.55-1.31-1.54-3.26-2.32-5.87-2.32-1.92,0-3.72.44-5.4,1.31-1.68.87-3.27,2.05-4.77,3.55v33.39h-11.12,0Z"/>
    <path class="cls-1" d="M698.61,41.73c1.98,0,3.84.2,5.58.61s3.33,1,4.77,1.78h13.27v4.14c0,.69-.18,1.23-.54,1.62-.36.39-.98.66-1.85.81l-4.14.76c.3.78.53,1.61.7,2.47.16.87.25,1.79.25,2.75,0,2.28-.46,4.34-1.37,6.19-.92,1.85-2.18,3.41-3.78,4.7-1.61,1.29-3.51,2.29-5.72,2.99-2.2.71-4.6,1.06-7.18,1.06-1.74,0-3.44-.17-5.08-.5-1.44.88-2.16,1.86-2.16,2.95,0,.94.43,1.62,1.28,2.06.85.44,1.98.75,3.38.93s2.98.27,4.75.27,3.58.08,5.44.23c1.86.15,3.67.41,5.44.79s3.35.97,4.75,1.78,2.52,1.92,3.38,3.32,1.28,3.2,1.28,5.39c0,2.05-.5,4.03-1.51,5.96-1.01,1.93-2.46,3.64-4.36,5.15-1.91,1.5-4.24,2.71-7,3.63s-5.91,1.38-9.45,1.38-6.56-.34-9.13-1.01c-2.58-.67-4.72-1.57-6.41-2.7-1.7-1.12-2.96-2.42-3.8-3.89s-1.26-3-1.26-4.59c0-2.16.66-3.97,1.98-5.44s3.15-2.64,5.49-3.51c-1.14-.63-2.06-1.47-2.75-2.52-.69-1.05-1.04-2.41-1.04-4.09,0-.69.12-1.4.36-2.14.24-.73.61-1.46,1.1-2.18.5-.72,1.12-1.4,1.87-2.05.75-.64,1.63-1.22,2.66-1.73-2.34-1.26-4.18-2.94-5.51-5.04-1.34-2.1-2-4.56-2-7.38,0-2.28.46-4.34,1.37-6.19.91-1.84,2.19-3.42,3.82-4.72s3.57-2.3,5.81-2.99c2.23-.69,4.67-1.04,7.31-1.04h0ZM710.8,90.64c0-.92-.27-1.67-.81-2.25s-1.28-1.03-2.2-1.36c-.93-.32-2.02-.56-3.26-.71-1.25-.15-2.56-.23-3.96-.23h-4.32c-1.49,0-2.92-.17-4.3-.5-1.26.69-2.27,1.51-3.04,2.45-.76.95-1.15,2.03-1.15,3.26,0,.81.2,1.57.61,2.27.4.7,1.05,1.31,1.93,1.82.88.51,2.03.91,3.44,1.19,1.41.29,3.13.43,5.17.43s3.85-.16,5.35-.48c1.5-.32,2.74-.77,3.71-1.33.97-.57,1.69-1.24,2.14-2.02s.67-1.63.67-2.55h.02ZM698.61,64.5c1.38,0,2.58-.19,3.6-.56,1.02-.38,1.87-.89,2.54-1.55s1.18-1.45,1.53-2.38c.34-.93.52-1.95.52-3.06,0-2.28-.68-4.09-2.05-5.42-1.37-1.33-3.41-2-6.14-2s-4.78.67-6.14,2c-1.37,1.33-2.05,3.14-2.05,5.42,0,1.08.17,2.08.52,3.01.34.93.85,1.73,1.53,2.41.67.68,1.53,1.2,2.56,1.58,1.04.38,2.23.56,3.58.56h0Z"/>
    <path class="cls-1" d="M742.71,29.08c0,.96-.2,1.86-.58,2.7-.39.84-.91,1.58-1.55,2.21-.65.63-1.4,1.13-2.27,1.51s-1.8.56-2.79.56-1.87-.19-2.72-.56-1.6-.88-2.23-1.51-1.13-1.37-1.51-2.21-.56-1.74-.56-2.7.19-1.92.56-2.79c.37-.87.88-1.62,1.51-2.25s1.37-1.13,2.23-1.51,1.76-.56,2.72-.56,1.92.19,2.79.56,1.63.88,2.27,1.51c.64.63,1.16,1.38,1.55,2.25.39.87.58,1.8.58,2.79ZM741.04,42.54v46.17h-11.11v-46.17h11.11Z"/>
    <path class="cls-1" d="M753.6,88.71v-46.17h6.79c1.44,0,2.39.67,2.83,2.03l.77,3.64c.93-.96,1.91-1.83,2.95-2.61,1.03-.78,2.13-1.46,3.28-2.03s2.39-1,3.71-1.3c1.32-.3,2.76-.45,4.32-.45,2.52,0,4.75.43,6.71,1.28,1.95.86,3.58,2.06,4.88,3.6s2.29,3.39,2.97,5.53c.67,2.15,1.01,4.51,1.01,7.09v29.38h-11.11v-29.38c0-2.82-.65-5-1.96-6.55-1.31-1.54-3.26-2.32-5.87-2.32-1.92,0-3.72.44-5.4,1.31-1.68.87-3.27,2.05-4.77,3.55v33.39h-11.12,0Z"/>
    <path class="cls-1" d="M823.85,41.82c2.91,0,5.59.47,8.03,1.39,2.44.93,4.55,2.29,6.32,4.07,1.77,1.79,3.15,3.97,4.14,6.57.99,2.6,1.49,5.56,1.49,8.89,0,.84-.04,1.54-.11,2.09-.08.56-.21.99-.41,1.3-.2.32-.46.54-.79.67-.33.14-.75.2-1.26.2h-28.53c.33,4.74,1.6,8.22,3.83,10.44,2.22,2.22,5.16,3.33,8.82,3.33,1.8,0,3.35-.21,4.66-.63s2.45-.88,3.42-1.39,1.83-.97,2.56-1.4c.74-.42,1.45-.63,2.14-.63.45,0,.84.09,1.17.27.33.18.61.44.86.77l3.24,4.05c-1.23,1.44-2.61,2.65-4.14,3.62-1.53.98-3.13,1.76-4.79,2.34s-3.36,1-5.08,1.24c-1.73.24-3.4.36-5.02.36-3.21,0-6.2-.53-8.96-1.6-2.76-1.06-5.16-2.64-7.2-4.73-2.04-2.08-3.65-4.66-4.82-7.74-1.17-3.07-1.75-6.64-1.75-10.69,0-3.15.51-6.11,1.53-8.89,1.02-2.77,2.48-5.19,4.39-7.25,1.9-2.05,4.23-3.68,6.97-4.88,2.75-1.2,5.84-1.8,9.29-1.8v.03ZM824.07,49.78c-3.24,0-5.78.92-7.6,2.75-1.83,1.83-3,4.43-3.51,7.79h20.88c0-1.44-.2-2.8-.58-4.07s-.99-2.39-1.8-3.35-1.83-1.72-3.06-2.27c-1.23-.56-2.67-.83-4.32-.83v-.02Z"/>
    <path class="cls-1" d="M871.95,41.82c2.91,0,5.59.47,8.03,1.39,2.44.93,4.55,2.29,6.32,4.07,1.77,1.79,3.15,3.97,4.14,6.57s1.49,5.56,1.49,8.89c0,.84-.04,1.54-.11,2.09-.08.56-.21.99-.41,1.3-.2.32-.46.54-.79.67-.33.14-.75.2-1.26.2h-28.53c.33,4.74,1.6,8.22,3.83,10.44,2.22,2.22,5.16,3.33,8.82,3.33,1.8,0,3.35-.21,4.66-.63s2.45-.88,3.42-1.39,1.83-.97,2.56-1.4c.74-.42,1.45-.63,2.14-.63.45,0,.84.09,1.17.27.33.18.61.44.86.77l3.24,4.05c-1.23,1.44-2.61,2.65-4.14,3.62-1.53.98-3.13,1.76-4.79,2.34s-3.36,1-5.08,1.24c-1.73.24-3.4.36-5.02.36-3.21,0-6.19-.53-8.95-1.6-2.76-1.06-5.16-2.64-7.2-4.73-2.04-2.08-3.65-4.66-4.82-7.74-1.17-3.07-1.75-6.64-1.75-10.69,0-3.15.51-6.11,1.53-8.89,1.02-2.77,2.48-5.19,4.39-7.25,1.9-2.05,4.23-3.68,6.97-4.88,2.75-1.2,5.84-1.8,9.29-1.8v.03ZM872.17,49.78c-3.24,0-5.78.92-7.61,2.75s-3,4.43-3.51,7.79h20.88c0-1.44-.2-2.8-.58-4.07s-.99-2.39-1.8-3.35-1.83-1.72-3.06-2.27c-1.23-.56-2.67-.83-4.32-.83v-.02Z"/>
    <path class="cls-1" d="M900.98,88.71v-46.17h6.52c1.14,0,1.94.21,2.38.63.45.42.75,1.14.9,2.16l.67,5.58c1.65-2.85,3.58-5.1,5.81-6.75,2.22-1.65,4.71-2.47,7.47-2.47,2.28,0,4.17.52,5.67,1.57l-1.44,8.33c-.09.54-.29.92-.58,1.15-.3.23-.71.34-1.21.34-.45,0-1.07-.1-1.84-.32-.78-.21-1.82-.31-3.11-.31-2.31,0-4.29.64-5.94,1.91-1.65,1.28-3.05,3.14-4.19,5.6v28.75h-11.11,0Z"/>
    <path class="cls-1" d="M951.24,29.08c0,.96-.2,1.86-.58,2.7-.39.84-.91,1.58-1.55,2.21-.65.63-1.4,1.13-2.27,1.51-.87.38-1.8.56-2.79.56s-1.87-.19-2.72-.56c-.86-.38-1.6-.88-2.23-1.51s-1.13-1.37-1.51-2.21-.56-1.74-.56-2.7.19-1.92.56-2.79c.38-.87.88-1.62,1.51-2.25s1.37-1.13,2.23-1.51c.85-.38,1.76-.56,2.72-.56s1.92.19,2.79.56c.87.38,1.63.88,2.27,1.51.64.63,1.16,1.38,1.55,2.25s.58,1.8.58,2.79ZM949.58,42.54v46.17h-11.12v-46.17h11.12Z"/>
    <path class="cls-1" d="M962.13,88.71v-46.17h6.79c1.44,0,2.38.67,2.83,2.03l.76,3.64c.93-.96,1.91-1.83,2.95-2.61s2.13-1.46,3.29-2.03c1.15-.57,2.39-1,3.71-1.3s2.76-.45,4.32-.45c2.52,0,4.75.43,6.71,1.28,1.95.86,3.58,2.06,4.88,3.6s2.29,3.39,2.97,5.53c.67,2.15,1.01,4.51,1.01,7.09v29.38h-11.12v-29.38c0-2.82-.65-5-1.96-6.55-1.3-1.54-3.26-2.32-5.87-2.32-1.92,0-3.72.44-5.4,1.31-1.68.87-3.27,2.05-4.77,3.55v33.39h-11.11.01Z"/>
    <path class="cls-1" d="M1029.27,41.73c1.98,0,3.84.2,5.58.61s3.33,1,4.77,1.78h13.28v4.14c0,.69-.18,1.23-.54,1.62s-.98.66-1.84.81l-4.14.76c.3.78.53,1.61.7,2.47.16.87.25,1.79.25,2.75,0,2.28-.46,4.34-1.37,6.19-.92,1.85-2.18,3.41-3.78,4.7-1.61,1.29-3.51,2.29-5.71,2.99-2.21.71-4.6,1.06-7.18,1.06-1.74,0-3.44-.17-5.08-.5-1.44.88-2.16,1.86-2.16,2.95,0,.94.43,1.62,1.28,2.06.86.44,1.98.75,3.38.93s2.98.27,4.75.27,3.58.08,5.44.23,3.67.41,5.45.79c1.77.38,3.35.97,4.75,1.78,1.39.81,2.52,1.92,3.38,3.32.85,1.4,1.28,3.2,1.28,5.39,0,2.05-.5,4.03-1.51,5.96-1,1.93-2.46,3.64-4.37,5.15-1.91,1.5-4.24,2.71-7,3.63s-5.91,1.38-9.45,1.38-6.55-.34-9.13-1.01-4.72-1.57-6.41-2.7c-1.7-1.12-2.96-2.42-3.8-3.89-.84-1.47-1.26-3-1.26-4.59,0-2.16.66-3.97,1.98-5.44s3.15-2.64,5.49-3.51c-1.14-.63-2.06-1.47-2.75-2.52-.69-1.05-1.04-2.41-1.04-4.09,0-.69.12-1.4.36-2.14.24-.73.61-1.46,1.1-2.18s1.12-1.4,1.87-2.05c.75-.64,1.63-1.22,2.66-1.73-2.34-1.26-4.18-2.94-5.51-5.04s-2-4.56-2-7.38c0-2.28.46-4.34,1.37-6.19.92-1.84,2.19-3.42,3.83-4.72,1.63-1.3,3.57-2.3,5.8-2.99,2.23-.69,4.67-1.04,7.31-1.04h-.03ZM1041.47,90.64c0-.92-.27-1.67-.81-2.25s-1.28-1.03-2.21-1.36c-.93-.32-2.02-.56-3.26-.71s-2.56-.23-3.96-.23h-4.32c-1.49,0-2.92-.17-4.3-.5-1.26.69-2.27,1.51-3.04,2.45-.77.95-1.15,2.03-1.15,3.26,0,.81.2,1.57.61,2.27.4.7,1.05,1.31,1.93,1.82.88.51,2.03.91,3.44,1.19s3.13.43,5.18.43,3.85-.16,5.35-.48c1.5-.32,2.74-.77,3.71-1.33.97-.57,1.69-1.24,2.14-2.02s.68-1.63.68-2.55h.01ZM1029.27,64.5c1.38,0,2.58-.19,3.6-.56,1.02-.38,1.87-.89,2.54-1.55s1.18-1.45,1.53-2.38c.34-.93.52-1.95.52-3.06,0-2.28-.68-4.09-2.05-5.42-1.37-1.33-3.41-2-6.14-2s-4.78.67-6.14,2c-1.37,1.33-2.05,3.14-2.05,5.42,0,1.08.17,2.08.52,3.01.34.93.86,1.73,1.53,2.41.67.68,1.53,1.2,2.57,1.58,1.03.38,2.23.56,3.58.56h-.01Z"/>
    <path class="cls-1" d="M1140.29,56.17c0,4.77-.8,9.19-2.39,13.25-1.59,4.07-3.82,7.58-6.71,10.55-2.88,2.97-6.34,5.29-10.39,6.95s-8.54,2.5-13.46,2.5-9.41-.83-13.48-2.5-7.54-3.98-10.44-6.95c-2.9-2.97-5.14-6.49-6.73-10.55-1.59-4.06-2.39-8.48-2.39-13.25s.79-9.19,2.39-13.25c1.59-4.06,3.83-7.58,6.73-10.55,2.89-2.97,6.37-5.29,10.44-6.95,4.06-1.67,8.56-2.5,13.48-2.5s9.41.84,13.46,2.52c4.05,1.68,7.51,4,10.39,6.95,2.88,2.96,5.12,6.47,6.71,10.53,1.59,4.07,2.39,8.48,2.39,13.25ZM1127.87,56.17c0-3.57-.47-6.77-1.42-9.61s-2.3-5.24-4.07-7.22-3.92-3.49-6.46-4.54c-2.54-1.05-5.39-1.57-8.57-1.57s-6.04.52-8.59,1.57c-2.55,1.05-4.72,2.57-6.5,4.54-1.79,1.98-3.16,4.39-4.12,7.22s-1.44,6.04-1.44,9.61.48,6.77,1.44,9.61c.96,2.84,2.33,5.24,4.12,7.2,1.79,1.97,3.95,3.47,6.5,4.52,2.55,1.05,5.42,1.58,8.59,1.58s6.04-.52,8.57-1.58c2.54-1.05,4.69-2.56,6.46-4.52s3.13-4.36,4.07-7.2c.95-2.83,1.42-6.04,1.42-9.61Z"/>
    <path class="cls-1" d="M1151.17,88.71v-37.8l-4-.63c-.87-.15-1.57-.45-2.09-.9-.53-.45-.79-1.08-.79-1.89v-4.54h6.88v-3.42c0-2.64.4-5.01,1.19-7.11s1.94-3.88,3.42-5.35c1.49-1.47,3.29-2.59,5.42-3.38,2.13-.78,4.53-1.17,7.2-1.17,2.13,0,4.11.29,5.94.85l-.22,5.58c-.06.87-.47,1.41-1.21,1.62-.75.21-1.62.31-2.61.31-1.32,0-2.5.14-3.53.43-1.04.29-1.91.78-2.63,1.49s-1.27,1.64-1.64,2.79c-.38,1.16-.56,2.59-.56,4.3v3.06h12.02v7.92h-11.66v37.84h-11.13Z"/>
    <path class="cls-1" d="M1182.72,88.71v-37.8l-4-.63c-.87-.15-1.57-.45-2.09-.9-.53-.45-.79-1.08-.79-1.89v-4.54h6.88v-1.49c0-2.82.46-5.44,1.4-7.85.93-2.41,2.34-4.51,4.23-6.28,1.89-1.77,4.28-3.16,7.16-4.16s6.28-1.51,10.21-1.51c1.26,0,2.55.07,3.87.2,1.32.14,2.46.35,3.42.65l-.36,5.76c-.06.69-.43,1.1-1.12,1.24s-1.54.2-2.56.2c-2.91,0-5.35.26-7.31.77-1.97.51-3.56,1.27-4.77,2.27s-2.08,2.27-2.61,3.78c-.53,1.52-.79,3.28-.79,5.29v1.12h28.62v45.76h-11.12v-37.84h-17.14v37.84h-11.13Z"/>
    <path class="cls-1" d="M1267.27,52.3c-.33.42-.65.75-.97.99-.32.24-.77.36-1.37.36s-1.12-.17-1.67-.52c-.54-.34-1.19-.73-1.93-1.17-.75-.43-1.64-.83-2.68-1.17s-2.32-.52-3.85-.52c-1.95,0-3.66.35-5.13,1.06-1.47.71-2.69,1.72-3.67,3.04-.97,1.32-1.7,2.92-2.18,4.79-.48,1.88-.72,4-.72,6.37s.26,4.65.79,6.57c.52,1.92,1.28,3.53,2.27,4.84s2.19,2.29,3.6,2.97c1.41.67,3,1.01,4.77,1.01s3.2-.22,4.3-.65c1.09-.43,2.02-.91,2.77-1.44.75-.52,1.4-1,1.96-1.44.55-.43,1.18-.65,1.87-.65.9,0,1.58.34,2.03,1.04l3.19,4.05c-1.23,1.44-2.56,2.65-4,3.62-1.44.98-2.93,1.76-4.48,2.34s-3.14,1-4.79,1.24c-1.65.24-3.29.36-4.91.36-2.85,0-5.54-.53-8.05-1.6-2.52-1.06-4.72-2.62-6.59-4.66-1.88-2.04-3.36-4.54-4.46-7.49-1.1-2.95-1.64-6.32-1.64-10.1,0-3.39.49-6.53,1.46-9.43.97-2.89,2.41-5.4,4.3-7.51,1.89-2.12,4.23-3.77,7.02-4.97,2.79-1.2,6-1.8,9.63-1.8s6.47.56,9.07,1.67c2.59,1.11,4.93,2.7,7,4.77l-2.92,4.05-.02-.02Z"/>
    <path class="cls-1" d="M1296.84,41.82c2.91,0,5.59.47,8.03,1.39,2.44.93,4.55,2.29,6.32,4.07,1.77,1.79,3.15,3.97,4.14,6.57s1.49,5.56,1.49,8.89c0,.84-.04,1.54-.11,2.09-.08.56-.21.99-.41,1.3-.2.32-.46.54-.79.67-.33.14-.75.2-1.26.2h-28.53c.33,4.74,1.6,8.22,3.83,10.44,2.22,2.22,5.16,3.33,8.82,3.33,1.8,0,3.35-.21,4.66-.63s2.45-.88,3.42-1.39,1.83-.97,2.56-1.4c.74-.42,1.45-.63,2.14-.63.45,0,.84.09,1.17.27.33.18.61.44.86.77l3.24,4.05c-1.23,1.44-2.61,2.65-4.14,3.62-1.53.98-3.13,1.76-4.79,2.34s-3.36,1-5.08,1.24c-1.73.24-3.4.36-5.02.36-3.21,0-6.19-.53-8.95-1.6-2.76-1.06-5.16-2.64-7.2-4.73-2.04-2.08-3.65-4.66-4.82-7.74-1.17-3.07-1.75-6.64-1.75-10.69,0-3.15.51-6.11,1.53-8.89,1.02-2.77,2.48-5.19,4.39-7.25,1.9-2.05,4.23-3.68,6.97-4.88,2.75-1.2,5.84-1.8,9.29-1.8v.03ZM1297.07,49.78c-3.24,0-5.78.92-7.61,2.75s-3,4.43-3.51,7.79h20.88c0-1.44-.2-2.8-.58-4.07s-.99-2.39-1.8-3.35-1.83-1.72-3.06-2.27c-1.23-.56-2.67-.83-4.32-.83v-.02Z"/>
  </g>
  <g>
    <path class="cls-1" d="M358.73,232.54c-3.91-2.4-6.76-5.6-8.55-9.58-1.79-3.98-2.68-8.39-2.68-13.23,0-2.37.21-4.99.64-7.84.42-2.86,1.22-5.94,2.4-9.25l8.57,3.16c-.85,2.75-1.46,5.32-1.82,7.69-.37,2.37-.55,4.48-.55,6.33,0,3.02.53,5.76,1.6,8.24,1.07,2.48,2.87,4.45,5.41,5.91,2.53,1.46,6.01,2.2,10.44,2.2s8.27-.51,11.27-1.54,5.25-2.23,6.75-3.6c1.49-1.38,2.24-2.55,2.24-3.52,0-1.26-.56-2.23-1.67-2.92-1.11-.69-2.9-1.03-5.36-1.03h-6.68c-.88,0-1.46-.28-1.74-.83-.28-.56-.55-1.3-.81-2.24l-1.49-5.32c-.12-.47-.12-.86,0-1.19.12-.32.51-.48,1.19-.48h25.31v10.06h-.83c.32.73.53,1.39.62,1.98s.13,1.22.13,1.89c0,2.26-.61,4.5-1.82,6.72-1.22,2.23-3.04,4.24-5.47,6.04-2.43,1.8-5.45,3.24-9.05,4.33s-7.79,1.63-12.57,1.63c-6.39,0-11.54-1.2-15.45-3.6h-.03ZM374.79,248.4l-6.77,6.81-6.72-6.81,6.72-6.72,6.77,6.72ZM389.47,248.4l-6.77,6.81-6.68-6.81,6.68-6.72,6.77,6.72Z"/>
    <path class="cls-1" d="M428.01,203.44v10.06h-26.59v-10.06h26.59Z"/>
    <path class="cls-1" d="M449.24,211.86c-1.9-1.1-3.44-2.62-4.61-4.55-1.49,1.96-3.33,3.49-5.49,4.57-2.17,1.08-5.11,1.63-8.83,1.63h-4.04v-10.06h4.13c2.34,0,4.25-.23,5.71-.7s2.54-1.31,3.23-2.53,1.03-2.97,1.03-5.25c0-.5-.02-1.16-.04-1.98-.03-.82-.09-1.76-.18-2.81s-.18-2.17-.26-3.34l8.96-1.1.79,10.37c.15,2.23.82,4.01,2.02,5.34s2.97,2,5.32,2c2.81,0,4.71-.69,5.69-2.07s1.47-3.52,1.47-6.42c0-.47-.02-1.12-.04-1.96-.03-.83-.09-1.78-.18-2.83s-.18-2.17-.26-3.34l8.96-1.1.79,10.37c.12,2.11.66,3.86,1.63,5.25s2.56,2.09,4.79,2.09c1.44,0,2.56-.37,3.36-1.12.81-.75,1.38-1.75,1.74-3.01.35-1.26.53-2.62.53-4.09,0-1.55-.12-3.13-.37-4.75-.25-1.61-.53-3.11-.83-4.5s-.58-2.48-.81-3.27l9.23-2.5c.56,2.14,1.01,4.39,1.36,6.77s.53,4.75.53,7.12c0,3.37-.46,6.53-1.38,9.49s-2.45,5.35-4.57,7.16c-2.12,1.82-5.02,2.74-8.68,2.77-2.75,0-5.01-.56-6.77-1.69s-3.21-2.64-4.35-4.55c-1.58,2.02-3.35,3.57-5.32,4.64-1.96,1.07-4.16,1.6-6.59,1.6-3.19,0-5.74-.55-7.65-1.65h-.02Z"/>
    <path class="cls-1" d="M527.31,193.27c-.34-1.22-.71-2.29-1.12-3.23l-8.17-18.28,8.44-4.04,10.37,24.21c1.14,2.67,2.15,4.85,3.03,6.55s1.79,2.95,2.72,3.76c.94.81,2.07,1.21,3.38,1.21h1.85v10.06h-1.85c-2.26,0-4.15-.28-5.67-.83-1.52-.56-2.84-1.37-3.96-2.44-1.11-1.07-2.2-2.37-3.25-3.89-1.41,1.58-3.04,2.9-4.9,3.96-1.86,1.05-3.98,1.85-6.37,2.37-2.39.53-5.12.79-8.2.79-2.26,0-4.24-.09-5.95-.29s-3.39-.48-5.03-.86v-10.02c1.79.41,3.56.72,5.32.92,1.76.21,3.43.31,5.01.31,2.96,0,5.54-.25,7.76-.75,2.21-.5,3.95-1.29,5.21-2.37,1.26-1.08,1.89-2.49,1.89-4.22,0-.73-.17-1.71-.51-2.92h0Z"/>
    <path class="cls-1" d="M568.33,184.59l.79,11.29c.09,1.7.44,3.11,1.05,4.24s1.5,1.96,2.66,2.5,2.61.81,4.37.81h.92v10.06h-1.01c-2.08,0-3.91-.26-5.49-.77s-2.95-1.23-4.11-2.15-2.16-2.04-3.01-3.36c-1.64,2.08-3.73,3.65-6.26,4.7s-5.19,1.58-7.98,1.58h-4.22v-10.06h4.22c3.52,0,5.98-.71,7.4-2.13s2.13-3.74,2.13-6.97c0-1.52-.04-3-.11-4.44-.07-1.43-.17-2.84-.29-4.22l8.92-1.1.02.02ZM567.93,170.22l-7.03,7.03-7.03-7.03,7.03-7.03,7.03,7.03Z"/>
    <path class="cls-1" d="M576.37,203.44h8.31v-.88c0-2.99.29-6.08.88-9.27.59-3.19,1.52-6.17,2.81-8.92s2.99-4.98,5.1-6.68,4.69-2.55,7.73-2.55c2.64,0,4.89.63,6.77,1.89,1.87,1.26,3.32,3,4.33,5.21s1.52,4.74,1.52,7.58-.53,5.41-1.58,8.06-2.5,5.09-4.33,7.32c-1.83,2.23-3.91,4.07-6.24,5.54-2.33,1.47-4.78,2.36-7.36,2.68.35,1.32.91,2.66,1.67,4.02.76,1.36,1.68,2.67,2.75,3.93,1.07,1.26,2.25,2.34,3.54,3.25.29-3.13.95-6,1.98-8.59s2.37-4.83,4.02-6.7,3.6-3.32,5.84-4.35,4.71-1.54,7.4-1.54h1.45v10.06h-1.54c-1.93,0-3.6.25-4.99.75-1.39.5-2.53,1.27-3.41,2.33s-1.53,2.41-1.96,4.07c-.42,1.65-.64,3.62-.64,5.91,0,.67.01,1.39.04,2.15.03.76.07,1.51.13,2.24l-6.42,6.15c-3.11-1.55-5.95-3.55-8.55-6-2.59-2.45-4.78-5.18-6.55-8.2-1.77-3.02-3-6.15-3.67-9.4h-9.05v-10.06h.02ZM597.71,186.37c-.92,1.01-1.69,2.36-2.31,4.04s-1.08,3.58-1.38,5.69-.46,4.26-.46,6.46v.92c2.17-.09,4.15-.74,5.95-1.96s3.24-2.82,4.31-4.81c1.07-1.99,1.6-4.15,1.6-6.46,0-1.73-.41-3.06-1.23-4s-1.9-1.41-3.25-1.41c-1.23,0-2.31.51-3.23,1.52h0Z"/>
    <path class="cls-1" d="M624.71,203.44c3.34,0,5.54-.87,6.59-2.61s1.58-4.09,1.58-7.05v-41.26h9.36v41.7c0,6.36-1.39,11.16-4.17,14.41s-7.25,4.88-13.4,4.88h-3.47v-10.06h3.52,0Z"/>
    <path class="cls-1" d="M664.44,213.46h-9.36v-60.95h9.36v60.95Z"/>
    <path class="cls-1" d="M769.38,184.59l.83,11.29c.15,2.55.85,4.45,2.11,5.69,1.26,1.25,3.21,1.87,5.84,1.87h1.05v10.06h-1.05c-3.31,0-6.06-.62-8.24-1.87s-3.98-3.11-5.38-5.6c-2.52,2.67-5.68,4.58-9.49,5.74s-8.95,1.74-15.42,1.74h-7.34c-5.33,0-10.1-.34-14.3-1.01-4.2-.67-7.77-1.8-10.7-3.38-2.93-1.58-5.16-3.71-6.7-6.37-1.54-2.67-2.31-6.02-2.31-10.06,0-2.29.26-4.52.77-6.7.51-2.18,1.16-4.24,1.96-6.17l8.44,3.16c-.47,1.32-.9,2.79-1.3,4.42s-.59,3.17-.59,4.64c0,2.4.58,4.35,1.74,5.84,1.16,1.49,2.81,2.64,4.97,3.45s4.75,1.36,7.78,1.67,6.45.46,10.26.46h7.34c4.48,0,8.31-.25,11.47-.75s5.59-1.41,7.27-2.72c1.68-1.32,2.53-3.21,2.53-5.67,0-1.32-.04-2.76-.13-4.33s-.19-3-.31-4.29l8.92-1.1h-.02ZM734.31,174.88l-6.77,6.81-6.72-6.81,6.72-6.72,6.77,6.72ZM748.99,174.88l-6.77,6.81-6.68-6.81,6.68-6.72,6.77,6.72Z"/>
    <path class="cls-1" d="M804.05,203.44v10.06h-26.59v-10.06h26.59Z"/>
    <path class="cls-1" d="M828.88,203.44v10.06h-26.59v-10.06h26.59Z"/>
    <path class="cls-1" d="M853.71,203.44v10.06h-26.59v-10.06h26.59Z"/>
    <path class="cls-1" d="M878.54,203.44v10.06h-26.59v-10.06h26.59Z"/>
    <path class="cls-1" d="M903.37,203.44v10.06h-26.59v-10.06h26.59Z"/>
    <path class="cls-1" d="M909.52,226.6l-6.77,6.81-6.72-6.81,6.72-6.72,6.77,6.72ZM905.04,203.44v10.06h-3.52v-10.06h3.52ZM926.22,184.59l.79,11.29c.09,1.7.44,3.11,1.05,4.24s1.5,1.96,2.66,2.5,2.62.81,4.37.81h.92v10.06h-1.01c-2.08,0-3.91-.26-5.49-.77s-2.95-1.23-4.11-2.15-2.16-2.04-3.01-3.36c-1.64,2.08-3.73,3.65-6.26,4.7s-5.19,1.58-7.98,1.58h-4.22v-10.06h4.22c3.52,0,5.98-.71,7.41-2.13,1.42-1.42,2.13-3.74,2.13-6.97,0-1.52-.04-3-.11-4.44-.07-1.43-.17-2.84-.29-4.22l8.92-1.1v.02ZM924.2,226.6l-6.77,6.81-6.68-6.81,6.68-6.72,6.77,6.72Z"/>
    <path class="cls-1" d="M936.33,203.44v10.06h-2.11v-10.06h2.11ZM935.14,213.51v-10.06h7.08c2.61,0,4.39-.78,5.34-2.33s1.43-3.53,1.43-5.93c0-1.96-.21-4.06-.62-6.31s-.83-4.49-1.27-6.75l9.32-2.37c.53,2.52.95,5.01,1.25,7.47.31,2.46.46,4.81.46,7.03,0,3.69-.5,6.99-1.49,9.89s-2.65,5.19-4.97,6.86-5.46,2.5-9.45,2.5h-7.08ZM950.3,226.6l-7.03,7.03-7.03-7.03,7.03-7.03,7.03,7.03Z"/>
    <path class="cls-1" d="M958.65,228.23c4.54-1,8.28-2.41,11.23-4.24,2.94-1.83,5.13-4.12,6.57-6.86s2.15-5.98,2.15-9.73c0-2.58-.34-5.36-1.01-8.35s-1.49-5.92-2.46-8.79l9.27-3.08c1.08,3.08,1.91,6.24,2.48,9.49s.86,6.4.86,9.45c0,5.45-.98,10.31-2.94,14.59s-4.85,7.84-8.66,10.68-8.51,4.8-14.11,5.89l-3.38-9.05h0Z"/>
    <path class="cls-1" d="M1025.27,220.82c-2.29,4.35-5.62,7.87-10,10.57s-9.71,4.64-15.97,5.84l-3.38-9.05c4.28-.85,8.03-1.98,11.27-3.41,3.24-1.42,5.86-3.15,7.87-5.19,2.01-2.04,3.3-4.36,3.89-6.97-.97.26-2.04.5-3.21.7-1.17.21-2.21.31-3.12.31-5.39,0-9.54-1.18-12.46-3.54-2.92-2.36-4.37-6.04-4.37-11.05,0-2.26.34-4.53,1.01-6.83s1.68-4.42,3.01-6.35c1.33-1.93,2.97-3.49,4.92-4.66s4.18-1.76,6.7-1.76c2.96,0,5.52.72,7.69,2.15,2.17,1.44,3.96,3.38,5.36,5.82s2.46,5.19,3.16,8.22,1.05,6.16,1.05,9.38c0,6.18-1.14,11.45-3.43,15.8v.02ZM1016.35,203.36c1.2-.18,2.3-.41,3.3-.7-.15-1.85-.42-3.58-.81-5.21s-.92-3.05-1.58-4.29c-.66-1.23-1.48-2.18-2.46-2.86-.98-.67-2.13-1.01-3.45-1.01-1.7,0-3.03.54-3.98,1.63-.95,1.08-1.62,2.36-2,3.82-.38,1.47-.57,2.77-.57,3.91,0,1.91.69,3.21,2.07,3.91s3.31,1.05,5.8,1.05c1.26,0,2.49-.09,3.69-.26h0Z"/>
    <path class="cls-1" d="M1036.85,146.73c-.63-.98-.94-2.29-.94-3.93,0-2.55.89-4.65,2.68-6.31s3.81-2.48,6.06-2.48c1.11,0,2.09.12,2.94.37s1.7.62,2.55,1.12l.04,4.7c-.91-.47-1.77-.78-2.57-.92-.81-.15-1.59-.22-2.35-.22-1.23,0-2.36.37-3.38,1.1-1.03.73-1.54,1.8-1.54,3.21.03.85.45,1.67,1.27,2.46s2.02,1.07,3.6.83c.06,0,.12,0,.2-.04.07-.03.14-.06.2-.09l6.06-2.15.66,4.66-17.09,6.77-.66-4.57,4.7-1.85c-1-.79-1.81-1.68-2.44-2.66h.01ZM1048.47,213.46h-9.36v-55.2h9.36v55.2Z"/>
    <path class="cls-1" d="M1153.42,184.59l.83,11.29c.15,2.55.85,4.45,2.11,5.69s3.21,1.87,5.84,1.87h1.05v10.06h-1.05c-3.31,0-6.06-.62-8.24-1.87s-3.98-3.11-5.38-5.6c-2.52,2.67-5.68,4.58-9.49,5.74s-8.95,1.74-15.42,1.74h-7.34c-5.33,0-10.1-.34-14.3-1.01s-7.77-1.8-10.7-3.38-5.16-3.71-6.7-6.37c-1.54-2.67-2.31-6.02-2.31-10.06,0-2.29.26-4.52.77-6.7s1.16-4.24,1.96-6.17l8.44,3.16c-.47,1.32-.9,2.79-1.3,4.42-.39,1.63-.59,3.17-.59,4.64,0,2.4.58,4.35,1.74,5.84s2.81,2.64,4.97,3.45c2.15.81,4.75,1.36,7.78,1.67s6.45.46,10.26.46h7.34c4.48,0,8.31-.25,11.47-.75s5.59-1.41,7.27-2.72c1.68-1.32,2.53-3.21,2.53-5.67,0-1.32-.04-2.76-.13-4.33s-.19-3-.31-4.29l8.92-1.1h-.02ZM1126.52,226.6l-7.03,7.03-7.03-7.03,7.03-7.03,7.03,7.03Z"/>
    <path class="cls-1" d="M1172.97,170.26l-6.77,6.81-6.72-6.81,6.72-6.68,6.77,6.68ZM1164.62,203.44v10.06h-3.12v-10.06h3.12ZM1185.72,184.59l.79,11.29c.09,1.7.44,3.11,1.05,4.24s1.5,1.96,2.66,2.5,2.61.81,4.37.81h.92v10.06h-1.01c-2.08,0-3.91-.26-5.49-.77s-2.95-1.23-4.11-2.15-2.16-2.04-3.01-3.36c-1.64,2.08-3.73,3.65-6.26,4.7-2.54,1.05-5.19,1.58-7.98,1.58h-4.22v-10.06h4.22c3.52,0,5.98-.71,7.4-2.13s2.13-3.74,2.13-6.97c0-1.52-.04-3-.11-4.44-.07-1.43-.17-2.84-.29-4.22l8.92-1.1.02.02ZM1187.65,170.26l-6.77,6.81-6.68-6.81,6.68-6.68,6.77,6.68Z"/>
    <path class="cls-1" d="M1220.34,203.44v10.06h-26.59v-10.06h26.59Z"/>
    <path class="cls-1" d="M1237.53,175.82c1.88,1.3,3.62,2.6,5.23,3.89s3.08,2.63,4.42,4.02,2.53,2.89,3.6,4.5c1.07,1.61,2,3.37,2.79,5.27.97,2.34,1.93,4.25,2.88,5.71.95,1.47,2.1,2.53,3.45,3.21,1.35.67,3.08,1.01,5.19,1.01h1.23v10.06h-1.23c-3.37,0-6.22-.58-8.55-1.74s-4.36-3.05-6.09-5.69c-1.32,1.73-2.85,3.14-4.59,4.24s-3.93,1.9-6.55,2.42c-2.62.51-5.96.77-10,.77h-10.72v-10.06h10.68c3.52,0,6.38-.18,8.59-.55s3.85-1.02,4.92-1.96,1.6-2.26,1.6-3.96c0-1.2-.46-2.44-1.38-3.71s-2.15-2.56-3.67-3.87-3.19-2.59-5.01-3.87-3.65-2.54-5.49-3.8c-1.85-1.26-3.54-2.49-5.1-3.69-1.05-.82-1.87-1.84-2.44-3.05-.57-1.22-.86-2.47-.86-3.76,0-1.43.36-2.75,1.08-3.93s1.82-2.07,3.32-2.66l32.61-13.27v9.89l-25.93,10.5c2.14,1.41,4.15,2.76,6.02,4.07h0Z"/>
    <path class="cls-1" d="M1289.67,213.64c-1.77-.59-3.51-1.42-5.21-2.5s-3.43-2.39-5.19-3.91c-1.17,1.26-2.32,2.37-3.45,3.32s-2.42,1.68-3.89,2.2-3.28.77-5.45.77h-1.93v-10.06h1.71c1.73,0,3.22-.56,4.48-1.69s2.42-2.58,3.49-4.35,2.15-3.65,3.25-5.65c1.1-1.99,2.34-3.88,3.71-5.67,1.38-1.79,3.01-3.24,4.9-4.35s4.17-1.67,6.83-1.67c3.46,0,6.45.82,8.99,2.46,2.53,1.64,4.5,3.83,5.89,6.57s2.09,5.75,2.09,9.03-.56,6.19-1.67,8.64-2.75,4.35-4.92,5.71-4.83,2.04-8,2.04c-1.99,0-3.88-.29-5.65-.88h.02ZM1289.54,191.07c-1.1.89-2.08,2.03-2.94,3.41-.87,1.38-1.62,2.75-2.26,4.13.91.88,1.79,1.66,2.64,2.33.85.67,1.67,1.25,2.46,1.71,1.14.7,2.21,1.22,3.21,1.54,1,.32,1.89.48,2.68.48,1.9,0,3.3-.56,4.2-1.67.89-1.11,1.34-2.59,1.34-4.44,0-2.52-.67-4.62-2.02-6.31s-3.22-2.53-5.62-2.53c-1.35,0-2.57.45-3.67,1.34h-.02Z"/>
  </g>
</svg>